<svg width="48" height="48" viewBox="0 0 48 48" fill="none" xmlns="http://www.w3.org/2000/svg">
<g clip-path="url(#clip0_215_263)">
<path fill-rule="evenodd" clip-rule="evenodd" d="M42 24H30C29.2044 24 28.4413 24.3161 27.8787 24.8787C27.3161 25.4413 27 26.2044 27 27V42C27 42.7956 27.3161 43.5587 27.8787 44.1213C28.4413 44.6839 29.2044 45 30 45H42C42.7956 45 43.5587 44.6839 44.1213 44.1213C44.6839 43.5587 45 42.7956 45 42V27C45 26.2044 44.6839 25.4413 44.1213 24.8787C43.5587 24.3161 42.7956 24 42 24ZM30 21C26.7 21 24 23.685 24 27V42C24 45.3 26.685 48 30 48H42C45.3 48 48 45.315 48 42V27C48 23.7 45.315 21 42 21H30Z" fill="#001F7B"/>
<path d="M30 28.5C30 28.1022 30.158 27.7206 30.4393 27.4393C30.7206 27.158 31.1022 27 31.5 27H40.5C40.8978 27 41.2794 27.158 41.5607 27.4393C41.842 27.7206 42 28.1022 42 28.5C42 28.8978 41.842 29.2794 41.5607 29.5607C41.2794 29.842 40.8978 30 40.5 30H31.5C31.1022 30 30.7206 29.842 30.4393 29.5607C30.158 29.2794 30 28.8978 30 28.5ZM30 34.5C30 34.1022 30.158 33.7206 30.4393 33.4393C30.7206 33.158 31.1022 33 31.5 33H40.5C40.8978 33 41.2794 33.158 41.5607 33.4393C41.842 33.7206 42 34.1022 42 34.5C42 34.8978 41.842 35.2794 41.5607 35.5607C41.2794 35.842 40.8978 36 40.5 36H31.5C31.1022 36 30.7206 35.842 30.4393 35.5607C30.158 35.2794 30 34.8978 30 34.5ZM30 40.5C30 40.1022 30.158 39.7206 30.4393 39.4393C30.7206 39.158 31.1022 39 31.5 39H37.5C37.8978 39 38.2794 39.158 38.5607 39.4393C38.842 39.7206 39 40.1022 39 40.5C39 40.8978 38.842 41.2794 38.5607 41.5607C38.2794 41.842 37.8978 42 37.5 42H31.5C31.1022 42 30.7206 41.842 30.4393 41.5607C30.158 41.2794 30 40.8978 30 40.5Z" fill="#001F7B"/>
<path fill-rule="evenodd" clip-rule="evenodd" d="M27 8.99998C27 9.79563 26.6839 10.5587 26.1213 11.1213C25.5587 11.6839 24.7956 12 24 12H12C11.2043 12 10.4413 11.6839 9.87868 11.1213C9.31607 10.5587 9 9.79563 9 8.99998H6C5.20435 8.99998 4.44129 9.31605 3.87868 9.87866C3.31607 10.4413 3 11.2043 3 12V39C3 39.7956 3.31607 40.5587 3.87868 41.1213C4.44129 41.6839 5.20435 42 6 42H21V45H6C2.7 45 0 42.315 0 39V12C0 8.69998 2.685 5.99998 6 5.99998H9C9 5.20433 9.31607 4.44127 9.87868 3.87866C10.4413 3.31605 11.2043 2.99998 12 2.99998H12.804C13.3302 2.08923 14.0868 1.33298 14.9978 0.807204C15.9088 0.281429 16.9422 0.00463867 17.994 0.00463867C19.0458 0.00463867 20.0792 0.281429 20.9902 0.807204C21.9012 1.33298 22.6578 2.08923 23.184 2.99998H23.988C24.7836 2.99998 25.5467 3.31605 26.1093 3.87866C26.6719 4.44127 26.988 5.20433 26.988 5.99998H29.988C33.288 5.99998 35.988 8.68498 35.988 12V18H32.988V12C32.988 11.2043 32.6719 10.4413 32.1093 9.87866C31.5467 9.31605 30.7836 8.99998 29.988 8.99998H26.988H27ZM12.81 5.99998C13.3363 6.00027 13.8534 5.8621 14.3094 5.59934C14.7655 5.33658 15.1443 4.95847 15.408 4.50298C15.6709 4.04555 16.0498 3.66554 16.5065 3.4013C16.9631 3.13705 17.4814 2.99791 18.009 2.99791C18.5366 2.99791 19.0549 3.13705 19.5115 3.4013C19.9682 3.66554 20.3471 4.04555 20.61 4.50298C20.8737 4.95847 21.2525 5.33658 21.7086 5.59934C22.1646 5.8621 22.6817 6.00027 23.208 5.99998H23.262C23.4609 5.99998 23.6517 6.079 23.7923 6.21965C23.933 6.36031 24.012 6.55107 24.012 6.74998V8.24998C24.012 8.4489 23.933 8.63966 23.7923 8.78031C23.6517 8.92097 23.4609 8.99998 23.262 8.99998H12.762C12.5631 8.99998 12.3723 8.92097 12.2317 8.78031C12.091 8.63966 12.012 8.4489 12.012 8.24998V6.74998C12.012 6.55107 12.091 6.36031 12.2317 6.21965C12.3723 6.079 12.5631 5.99998 12.762 5.99998H12.81Z" fill="#001F7B"/>
</g>
<defs>
<clipPath id="clip0_215_263">
<rect width="48" height="48" fill="white"/>
</clipPath>
</defs>
</svg>
